<svg x="0" y="0" width="1080" height="1920" viewBox="0 0 1050 1866.6666666666667" xmlns="http://www.w3.org/2000/svg" xmlns:xlink="http://www.w3.org/1999/xlink" xmlns:fi="http://pattern.flaticon.com/"><rect x="0px" y="0px" width="100%" height="100%" opacity="1" fill="#f0f0f0"/><defs><g transform="matrix(0.1697913110256195 0.04549544304609299 -0.04549544304609299 0.1697913110256195 -33.031028747558594 293.6625061035156)" id="L1_158"><path d="m266 223.0625v-26.550781c0-5.523438-4.476562-10-10-10s-10 4.476562-10 10v26.550781c0 5.519531 4.476562 10 10 10s10-4.480469 10-10zm0 0" fill="#ffccf0"/><path d="m338.558594 221.859375c2.558594 0 5.117187-.976563 7.070312-2.929687 3.90625-3.90625 3.90625-10.238282 0-14.144532l-18.773437-18.773437c-3.902344-3.902344-10.234375-3.902344-14.140625 0-3.90625 3.90625-3.90625 10.238281 0 14.144531l18.773437 18.773438c1.949219 1.953124 4.511719 2.929687 7.070313 2.929687zm0 0" fill="#ffccf0"/><path d="m166.371094 218.929688c1.953125 1.953124 4.511718 2.929687 7.070312 2.929687s5.121094-.976563 7.070313-2.929687l18.773437-18.773438c3.90625-3.902344 3.90625-10.234375 0-14.140625s-10.238281-3.90625-14.140625 0l-18.773437 18.773437c-3.90625 3.902344-3.90625 10.234376 0 14.140626zm0 0" fill="#ffccf0"/><path d="m170.773438 128.671875c-2.554688-4.894531-8.59375-6.792969-13.488282-4.238281-.015625.003906-.101562.050781-.140625.070312-4.890625 2.53125-6.816406 8.542969-4.304687 13.445313 1.773437 3.453125 5.277344 5.4375 8.910156 5.4375 1.535156 0 3.09375-.351563 4.554688-1.101563l.230468-.121094c4.894532-2.554687 6.792969-8.597656 4.238282-13.492187zm0 0" fill="#ffccf0"/><path d="m502 420h-79.269531l41.738281-98.789062c26.761719-3.367188 47.53125-26.246094 47.53125-53.902344 0-29.96875-24.382812-54.347656-54.347656-54.347656-4.542969 0-9.101563.601562-13.523438 1.734374-17.085937-33.175781-42.554687-61.179687-74.105468-81.355468-34.109376-21.8125-73.535157-33.339844-114.023438-33.339844-18.488281 0-36.921875 2.425781-54.78125 7.214844-5.335938 1.429687-8.5 6.910156-7.070312 12.246094 1.195312 4.46875 5.238281 7.414062 9.652343 7.414062.855469 0 1.730469-.109375 2.597657-.34375 16.171874-4.332031 32.859374-6.53125 49.601562-6.53125 74.449219 0 142.734375 43.667969 173.96875 111.246094 1.6875 3.65625 5.304688 5.808594 9.085938 5.808594 1.089843 0 2.195312-.1875 3.269531-.5625.015625-.003907.03125-.011719.046875-.015626.292968-.105468.585937-.214843.871094-.347656.007812-.003906.015624-.007812.023437-.011718.003906-.003907.007813-.003907.011719-.003907 4.476562-2.0625 9.445312-3.152343 14.375-3.152343 18.9375 0 34.347656 15.40625 34.347656 34.347656 0 18.933594-15.402344 34.339844-34.335938 34.34375-.007812 0-.015624 0-.023437 0-15.523437 0-33.828125-6.371094-51.53125-12.527344-18.570313-6.460938-36.105469-12.5625-52.289063-12.5625-16.0625 0-30.824218 6.214844-45.097656 12.222656-15.027344 6.328125-30.566406 12.867188-48.539062 12.867188h-8.367188c-17.976562 0-33.515625-6.539063-48.539062-12.867188-14.277344-6.007812-29.039063-12.222656-45.101563-12.222656-16.179687 0-33.71875 6.101562-52.285156 12.5625-17.695313 6.15625-35.996094 12.519531-51.515625 12.527344-.019531 0-.039062 0-.058594 0-18.925781-.011719-34.316406-15.414063-34.316406-34.34375 0-18.9375 15.40625-34.347656 34.347656-34.347656 4.929688 0 9.898438 1.089843 14.375 3.152343.003906 0 .007813.003907.011719.003907.007813.003906.015625.007812.023437.011718.269532.125.546876.230469.824219.328125.03125.011719.0625.027344.09375.035157 1.074219.375 2.179688.5625 3.269531.5625 3.777344 0 7.394532-2.152344 9.085938-5.808594 13.808594-29.882813 35.226562-55.847656 61.9375-75.09375 4.480469-3.226563 5.496094-9.476563 2.269531-13.957032-3.230469-4.480468-9.480469-5.5-13.960937-2.269531-27.035156 19.480469-49.140625 45.207031-64.390625 74.773438-4.425781-1.136719-8.992188-1.738281-13.539063-1.738281-29.96875 0-54.347656 24.378906-54.347656 54.34375 0 27.65625 20.769531 50.539062 47.527344 53.90625l41.742187 98.789062h-79.269531c-5.523438 0-10 4.480469-10 10 0 5.523438 4.476562 10 10 10h16v10c0 16.542969 13.457031 30 30 30h400c16.542969 0 30-13.457031 30-30v-10h16c5.523438 0 10-4.476562 10-10 0-5.519531-4.476562-10-10-10zm-433.089844-99.570312c14.417969-2.285157 29.167969-7.410157 43.550782-12.414063 16.929687-5.890625 32.914062-11.453125 45.71875-11.453125 12.023437 0 23.753906 4.9375 37.339843 10.65625 16.070313 6.765625 34.285157 14.433594 56.296875 14.433594h8.367188c22.011718 0 40.226562-7.667969 56.296875-14.433594 13.585937-5.71875 25.316406-10.65625 37.339843-10.65625 12.804688 0 28.792969 5.5625 45.71875 11.453125 14.382813 5.003906 29.136719 10.128906 43.550782 12.414063l-42.070313 99.570312h-290.039062zm397.089844 129.570312c0 5.515625-4.488281 10-10 10h-400c-5.515625 0-10-4.484375-10-10v-10h420zm0 0" fill="#ffccf0"/><path d="m307.882812 390h-.234374c-5.523438 0-10 4.480469-10 10 0 5.523438 4.476562 10 10 10h.234374c5.523438 0 10-4.476562 10-10 0-5.519531-4.476562-10-10-10zm0 0" fill="#ffccf0"/><path d="m377.648438 390h-41.03125c-5.523438 0-10 4.476562-10 10s4.476562 10 10 10h41.03125c5.523437 0 10-4.476562 10-10s-4.476563-10-10-10zm0 0" fill="#ffccf0"/><path d="m248.703125 59.914062c-3.902344 3.90625-3.90625 10.234376 0 14.140626 1.953125 1.953124 4.511719 2.929687 7.074219 2.929687 2.558594 0 5.117187-.976563 7.070312-2.929687 14.972656-14.96875 6.871094-31.089844 2.03125-40.722657-5.554687-11.054687-5.34375-12.949219-2.03125-16.261719 3.902344-3.902343 3.902344-10.234374 0-14.140624-3.90625-3.90625-10.238281-3.90625-14.144531 0-14.296875 14.296874-6.40625 30-1.695313 39.378906 5.550782 11.046875 5.789063 13.515625 1.695313 17.605468zm0 0" fill="#ffccf0"/><path d="m157.164062 79.914062c-3.902343 3.90625-3.90625 10.234376 0 14.140626 1.953126 1.953124 4.511719 2.929687 7.074219 2.929687 2.558594 0 5.117188-.976563 7.070313-2.925781 14.972656-14.972656 6.871094-31.09375 2.03125-40.726563-5.554688-11.050781-5.34375-12.949219-2.03125-16.257812 3.902344-3.90625 3.902344-10.238281 0-14.144531-3.90625-3.902344-10.238282-3.902344-14.144532 0-14.296874 14.296874-6.40625 30-1.695312 39.382812 5.550781 11.042969 5.789062 13.511719 1.695312 17.601562zm0 0" fill="#ffccf0"/><path d="m340.242188 79.914062c-3.902344 3.90625-3.90625 10.234376 0 14.140626 1.953124 1.953124 4.511718 2.929687 7.070312 2.929687 2.5625 0 5.121094-.976563 7.074219-2.925781 14.972656-14.972656 6.871093-31.09375 2.03125-40.726563-5.554688-11.050781-5.34375-12.949219-2.03125-16.257812 3.902343-3.90625 3.902343-10.238281 0-14.144531-3.90625-3.902344-10.238281-3.902344-14.144531 0-14.296876 14.296874-6.40625 30-1.695313 39.382812 5.550781 11.042969 5.789063 13.511719 1.695313 17.601562zm0 0" fill="#ffccf0"/></g><g transform="matrix(0.078125 0 0 0.078125 77.5 -10)" id="L1_159"><path d="m87.371 19.314c-25.047 0-41.876 17.922-41.876 44.597 0 14.043 4.352 28.772 11.939 40.411 8.222 12.613 18.854 19.56 29.937 19.56s21.715-6.946 29.938-19.56c7.587-11.639 11.939-26.368 11.939-40.411 0-26.675-16.83-44.597-41.877-44.597zm11.937 44.597c0 13.187-1.555 27.566-4.16 38.465-3.236 13.541-6.711 16.506-7.777 16.506s-4.541-2.965-7.777-16.506c-2.604-10.899-4.16-25.278-4.16-38.465 0-25.996 6.005-39.597 11.937-39.597s11.937 13.602 11.937 39.597zm-48.813 0c0-20.49 10.508-34.796 27.467-38.588-4.785 7.246-7.527 20.714-7.527 38.588 0 17.917 2.958 42.187 9.187 53.571-16.891-6.134-29.127-31.417-29.127-53.571zm44.626 53.571c6.229-11.384 9.187-35.654 9.187-53.571 0-17.874-2.742-31.342-7.527-38.588 16.959 3.792 27.467 18.098 27.467 38.588 0 22.154-12.237 47.437-29.127 53.571z" fill="#ffccf0"/><path d="m196.367 201.985c-1.381 0-2.5-1.119-2.5-2.5v-142.97c0-1.381 1.119-2.5 2.5-2.5s2.5 1.119 2.5 2.5v142.971c0 1.38-1.119 2.499-2.5 2.499z" fill="#ebe7f2"/><g fill="#846f75"><path d="m98.497 125.768c-1.381 0-2.5 1.119-2.5 2.5v94.792c0 4.756-3.87 8.625-8.626 8.625s-8.625-3.869-8.625-8.625v-94.792c0-1.381-1.119-2.5-2.5-2.5s-2.5 1.119-2.5 2.5v94.792c0 7.513 6.112 13.625 13.625 13.625s13.626-6.112 13.626-13.625v-94.792c0-1.381-1.119-2.5-2.5-2.5z"/><path d="m202.746 54.015h-50.992c-4.278 0-7.759 3.481-7.759 7.759v132.452c0 4.278 3.481 7.759 7.759 7.759h50.992c4.278 0 7.759-3.481 7.759-7.759v-132.452c0-4.278-3.481-7.759-7.759-7.759zm2.759 140.211c0 1.521-1.238 2.759-2.759 2.759h-50.992c-1.521 0-2.759-1.238-2.759-2.759v-132.452c0-1.521 1.238-2.759 2.759-2.759h50.992c1.521 0 2.759 1.238 2.759 2.759z"/></g><g fill="#65c1d6"><path d="m188.783 47.574c-1.381 0-2.5-1.119-2.5-2.5v-11.726c0-4.981-4.052-9.033-9.033-9.033s-9.033 4.052-9.033 9.033v11.727c0 1.381-1.119 2.5-2.5 2.5s-2.5-1.119-2.5-2.5v-11.727c0-7.738 6.295-14.033 14.033-14.033s14.033 6.295 14.033 14.033v11.727c0 1.38-1.119 2.499-2.5 2.499z"/><path d="m177.25 236.686c-7.738 0-14.033-6.295-14.033-14.033v-11.727c0-1.381 1.119-2.5 2.5-2.5s2.5 1.119 2.5 2.5v11.727c0 4.981 4.052 9.033 9.033 9.033s9.033-4.052 9.033-9.033v-11.727c0-1.381 1.119-2.5 2.5-2.5s2.5 1.119 2.5 2.5v11.727c0 7.737-6.296 14.033-14.033 14.033z"/></g></g><g transform="matrix(0.078125 0 0 0.078125 67.5 67.5)" id="L1_161"><path d="M512,32,323.015,32a9.963,9.963,0,0,1-8.24-4.349C306.833,15.986,290.66,8,272,8c-26.51,0-48,16.118-48,36s21.49,36,48,36c18.66,0,34.833-7.986,42.775-19.65A9.963,9.963,0,0,1,323.016,56H512" fill="#ffccf0"/><rect x="332px" y="335px" width="16px" height="56px" transform="matrix(0.7071067690849304 -0.7071067690849304 0.7071067690849304 0.7071067690849304 -157.80299377441406 347.02899169921875)" fill="#ffccf0"/><path d="M82.4,215.794C128.68,226.245,190.332,232,256,232s127.32-5.755,173.6-16.206C482.015,203.959,496,190.24,496,184s-13.985-19.959-66.4-31.794C383.32,141.755,321.668,136,256,136s-127.32,5.755-173.6,16.206C29.985,164.041,16,177.76,16,184S29.985,203.959,82.4,215.794Z" fill="#ffccf0"/><path d="M433.125,231.4C385.723,242.1,322.818,248,256,248s-129.723-5.9-177.125-16.6c-35.3-7.971-58.846-17.824-70.446-29.417,5.635,118.4,66.549,218.607,151.571,262.4V488a296,296,0,0,0,192,0V464.385c85.021-43.793,145.935-144,151.571-262.4C491.97,213.577,468.425,223.43,433.125,231.4Zm-53.58,194.716C346.448,450.546,302.572,464,256,464s-90.448-13.454-123.545-37.882C98.629,401.151,80,367.726,80,332H96a89.028,89.028,0,0,0,13.095,45.939C126.9,355.948,180.224,289.448,256,288c79.8-1.525,130.159,67.206,147.036,89.723A88.977,88.977,0,0,0,416,332h16C432,367.726,413.371,401.151,379.545,426.118Z" fill="#ffccf0"/><path d="M264,272H248V152c0-24.163,3.146-42.464,9.1-52.927L271,106.984c-2.106,3.7-7,15.5-7,45.016Z" fill="#ffccf0"/></g><g transform="matrix(0.14583180844783783 0 0 0.14583180844783783 315 140)" id="L1_162"><path d="M440.003,0h-400c-22.08,0.026-39.974,17.92-40,40v256c0.026,22.08,17.92,39.974,40,40h177.77    c-10.678,0.042-21.343,4.133-29.49,12.28c-16.379,16.379-16.379,42.933,0,59.312l51.72,51.72V472c0,4.418,3.582,8,8,8h192    c4.418,0,8-3.582,8-8V335.2c18.611-3.827,31.976-20.199,32-39.2V40C479.976,17.92,462.083,0.026,440.003,0z M432.003,464h-176v-8    c0-2.122-0.844-4.156-2.344-5.656l-54.064-54.064c-10.016-10.246-9.83-26.672,0.416-36.688c10.082-9.856,26.19-9.856,36.272,0    l14.064,14.064c3.125,3.124,8.19,3.123,11.314-0.002c1.499-1.5,2.342-3.534,2.342-5.654v-60c0-46.392,37.608-84,84-84    s84,37.608,84,84V464z M218.105,336h29.898v12.688l-0.408-0.408C239.448,340.133,228.783,336.042,218.105,336z M250.323,286.752    c-3.384,0.792-6.845,1.211-10.32,1.248c-26.509,0.108-48.087-21.294-48.196-47.803s21.294-48.087,47.803-48.196    c22.44-0.092,41.95,15.377,46.976,37.247C268.162,243.6,255.334,263.941,250.323,286.752z M392.003,208v10.336    c-13.6-6.75-28.569-10.286-43.752-10.336c17.54-19.801,47.81-21.634,67.611-4.094c13.43,11.896,19.085,30.301,14.653,47.686v0.016    c-7.563-10.994-17.233-20.378-28.448-27.608h5.936v-16H392.003z M464.003,296c-0.042,10.134-6.445,19.15-16,22.528V308    c0.001-13.068-2.573-26.008-7.576-38.08c16.513-31.169,4.633-69.823-26.536-86.336c-31.169-16.513-69.823-4.633-86.336,26.536    c-9.359,1.951-18.386,5.246-26.8,9.784c-10.909-33.82-47.17-52.393-80.99-41.484c-33.82,10.909-52.393,47.17-41.484,80.99    c9.574,29.681,39.055,48.223,69.954,43.998c-0.072,1.536-0.232,3.04-0.232,4.592v12h-208c-13.255,0-24-10.745-24-24V40    c0-13.255,10.745-24,24-24h400c13.255,0,24,10.745,24,24V296z" fill="#ffccf0"/><path d="M240.003,32c-35.346,0-64,28.654-64,64c0,35.346,28.654,64,64,64c35.346,0,64-28.654,64-64    C303.963,60.67,275.332,32.04,240.003,32z M240.003,144c-26.51,0-48-21.49-48-48s21.49-48,48-48c26.51,0,48,21.49,48,48    C287.976,122.499,266.501,143.974,240.003,144z" fill="#ffccf0"/><path d="M96.003,32c-35.346,0-64,28.654-64,64c0,35.346,28.654,64,64,64c35.346,0,64-28.654,64-64    C159.963,60.67,131.332,32.04,96.003,32z M96.003,144c-26.51,0-48-21.49-48-48s21.49-48,48-48c26.51,0,48,21.49,48,48    C143.976,122.499,122.501,143.974,96.003,144z" fill="#ffccf0"/><path d="M384.003,32c-35.346,0-64,28.654-64,64c0,35.346,28.654,64,64,64c35.346,0,64-28.654,64-64    C447.963,60.67,419.332,32.04,384.003,32z M384.003,144c-26.51,0-48-21.49-48-48s21.49-48,48-48c26.51,0,48,21.49,48,48    C431.976,122.499,410.501,143.974,384.003,144z" fill="#ffccf0"/><path d="M96.003,176c-35.346,0-64,28.654-64,64c0,35.346,28.654,64,64,64c35.346,0,64-28.654,64-64    C159.963,204.67,131.332,176.04,96.003,176z M96.003,288c-26.51,0-48-21.49-48-48c0-26.51,21.49-48,48-48c26.51,0,48,21.49,48,48    C143.976,266.499,122.501,287.974,96.003,288z" fill="#ffccf0"/><rect x="80px" y="64px" width="16px" height="16px" fill="#ffccf0"/><rect x="112px" y="88px" width="16px" height="16px" fill="#ffccf0"/><rect x="232px" y="64px" width="16px" height="16px" fill="#ffccf0"/><rect x="216px" y="112px" width="16px" height="16px" fill="#ffccf0"/><rect x="64px" y="224px" width="16px" height="16px" fill="#ffccf0"/><rect x="104px" y="248px" width="16px" height="16px" fill="#ffccf0"/><rect x="96px" y="208px" width="16px" height="16px" fill="#ffccf0"/><rect x="248px" y="224px" width="16px" height="16px" fill="#ffccf0"/><rect x="224px" y="248px" width="16px" height="16px" fill="#ffccf0"/><rect x="352px" y="96px" width="16px" height="16px" fill="#ffccf0"/><rect x="392px" y="104px" width="16px" height="16px" fill="#ffccf0"/><rect x="376px" y="64px" width="16px" height="16px" fill="#ffccf0"/><rect x="216px" y="208px" width="16px" height="16px" fill="#ffccf0"/><rect x="72px" y="104px" width="16px" height="16px" fill="#ffccf0"/><rect x="256px" y="96px" width="16px" height="16px" fill="#ffccf0"/><path d="M51.203,412.424c-6.399-12.864-6.399-27.984,0-40.848l4-8c1.975-3.954,0.37-8.761-3.584-10.736    c-3.954-1.975-8.761-0.37-10.736,3.584l-4,8c-8.632,17.371-8.632,37.781,0,55.152c6.399,12.864,6.399,27.984,0,40.848l-4,8    c-1.975,3.954-0.37,8.761,3.584,10.736s8.761,0.37,10.736-3.584l4-8C59.834,450.205,59.834,429.795,51.203,412.424z" fill="#ffccf0"/><path d="M147.203,412.424c-6.399-12.864-6.399-27.984,0-40.848l4-8c1.975-3.954,0.37-8.761-3.584-10.736s-8.761-0.37-10.736,3.584    l-4,8c-8.632,17.371-8.632,37.781,0,55.152c6.399,12.864,6.399,27.984,0,40.848l-4,8c-1.975,3.954-0.37,8.761,3.584,10.736    c3.954,1.975,8.761,0.37,10.736-3.584l4-8C155.834,450.205,155.834,429.795,147.203,412.424z" fill="#ffccf0"/><path d="M99.203,412.424c-6.399-12.864-6.399-27.984,0-40.848l4-8c1.975-3.954,0.37-8.761-3.584-10.736    c-3.954-1.975-8.761-0.37-10.736,3.584l-4,8c-8.632,17.371-8.632,37.781,0,55.152c6.399,12.864,6.399,27.984,0,40.848l-4,8    c-1.975,3.954-0.37,8.761,3.584,10.736s8.761,0.37,10.736-3.584l4-8C107.834,450.205,107.834,429.795,99.203,412.424z" fill="#ffccf0"/></g><g transform="matrix(0.0390625 0 0 0.0390625 252.5 340)" id="L1_163"><path d="m503.078125 459.917969-45.523437-45.523438c4.507812-15.898437.527343-33.714843-11.964844-46.207031-1.554688-1.554688-3.207032-2.96875-4.933594-4.273438 5.195312-5.96875 8.039062-13.535156 8.039062-21.570312 0-8.828125-3.421874-17.097656-9.625-23.28125l-17.574218-17.574219c-3.902344-3.902343-10.230469-3.902343-14.132813 0-3.898437 3.902344-3.898437 10.230469 0 14.128907l17.585938 17.585937c2.425781 2.417969 3.761719 5.664063 3.761719 9.140625 0 3.472656-1.335938 6.71875-3.769532 9.148438l-7.824218 7.820312v.003906l-57.800782 57.796875-8.503906 8.503907c-5.050781 5.054687-13.273438 5.054687-18.324219 0l-74.847656-74.84375c-.246094-.273438-.503906-.535157-.78125-.78125l-34.261719-34.261719c-.210937-.234375-.433594-.457031-.671875-.675781l-54.5625-54.5625c-.265625-.296876-.542969-.574219-.832031-.832032l-79.585938-79.582031c-5.050781-5.050781-5.050781-13.269531 0-18.324219l74.128907-74.125c2.417969-2.417968 5.667969-3.75 9.148437-3.75 3.480469 0 6.730469 1.332032 9.148438 3.75l172.347656 172.347656c3.902344 3.902344 10.230469 3.902344 14.132812 0 3.902344-3.902343 3.902344-10.230468 0-14.132812l-18.65625-18.65625c1.082032-.828125 2.117188-1.726562 3.09375-2.699219 5.828126-5.832031 9.035157-13.597656 9.027344-21.875-.003906-3.175781-.480468-6.273437-1.398437-9.214843l112.445312-91.414063c10.71875-8.703125 17.035157-21.496094 17.789063-36.023437.835937-16.214844-5.523438-32.757813-17.019532-44.253907-11.476562-11.476562-27.996093-17.839843-44.191406-17.011719-14.535156.742188-27.347656 7.050782-36.082031 17.773438l-90 110.707031c-4.449219-2.414062-9.464844-3.703125-14.6875-3.707031-.011719 0-.019531 0-.03125 0-8.261719 0-16.019531 3.203125-21.84375 9.027344-.976563.976562-1.875 2.011718-2.703125 3.09375l-68.089844-68.09375c-6.195312-6.191406-14.460937-9.601563-23.28125-9.601563-8.078125 0-15.683594 2.867188-21.664062 8.101563-1.4375-1.972656-3.007813-3.847656-4.742188-5.582032-8.851562-8.867187-20.671875-13.753906-33.277344-13.753906-4.441406 0-8.777343.617188-12.925781 1.789063l-45.503906-45.523438v-.003906c-5.753906-5.753906-13.421875-8.921875-21.59375-8.921875s-15.839844 3.167969-21.59375 8.921875-8.921875 13.421875-8.921875 21.59375 3.167969 15.839844 8.925781 21.59375l45.527344 45.503906c-1.171875 4.148438-1.792969 8.488281-1.792969 12.929688 0 12.605469 4.882813 24.429687 13.773438 33.320312 1.714844 1.703125 3.570312 3.253907 5.515625 4.671875-11.964844 12.902344-11.679688 33.128906.867187 45.675782l36.617188 36.617187c-31.121094 16.011719-53.375 30.609375-66.242188 43.476563-28.074218 28.078124-43.003906 59.574218-43.1718748 91.078124-.1562502 29.28125 12.0859378 57.085938 35.4062498 80.40625 23.175781 23.175782 50.773438 35.410157 79.851563 35.410157h.554687c31.507813-.167969 63-15.097657 91.078125-43.175781 12.785156-12.785157 28.058594-34.371094 45.472656-64.242188l65.972657 65.972656c6.421875 6.421875 14.859375 9.632813 23.292969 9.632813 8.007812 0 16.011718-2.902344 22.296874-8.6875 1.292969 1.710937 2.699219 3.347656 4.242188 4.890625 9.179688 9.179687 21.230469 13.765625 33.285156 13.765625 4.351563 0 8.703125-.605469 12.921875-1.800781l45.523438 45.523437c5.753906 5.753906 13.421875 8.921875 21.589843 8.921875h.027344c8.164063-.007812 15.820313-3.179688 21.527344-8.910156 5.757812-5.734375 8.929688-13.386719 8.9375-21.554688.007812-8.179687-3.160156-15.855468-8.921875-21.617187zm-96.71875-424.832031c5.113281-6.277344 12.785156-9.980469 21.601563-10.429688 10.652343-.546875 21.492187 3.636719 29.039062 11.183594 7.558594 7.558594 11.742188 18.433594 11.191406 29.089844-.453125 8.796874-4.15625 16.449218-10.429687 21.542968l-111.320313 90.496094-30.5625-30.585938zm-127.929687 117.542968c2.046874-2.050781 4.785156-3.175781 7.714843-3.175781h.007813c2.917968 0 5.640625 1.125 7.683594 3.175781l42.320312 42.320313c.03125.027343.054688.058593.082031.085937.222657.226563.433594.457032.632813.699219.023437.023437.042968.050781.0625.078125 1.550781 1.910156 2.398437 4.292969 2.398437 6.820312.003907 2.929688-1.125 5.671876-3.175781 7.722657-1 1-2.183594 1.777343-3.480469 2.3125l-56.566406-56.566407c.535156-1.285156 1.3125-2.46875 2.320313-3.472656zm-148.757813-72.09375c.003906 0 .003906.003906.007813.003906 1.761718 1.761719 3.238281 3.703126 4.421874 5.800782l-47.765624 47.765625c-2.097657-1.179688-4.039063-2.648438-5.796876-4.394531-5.089843-5.09375-7.894531-11.898438-7.894531-19.167969 0-7.265625 2.800781-14.0625 7.894531-19.144531l10.863282-10.863282c5.078125-5.089844 11.875-7.886718 19.136718-7.886718 7.261719 0 14.058594 2.796874 19.132813 7.886718zm-65.226563-1.191406-41.390624-41.367188c-1.980469-1.976562-3.070313-4.628906-3.070313-7.460937s1.089844-5.484375 3.070313-7.460937c1.976562-1.980469 4.628906-3.070313 7.460937-3.070313s5.484375 1.089844 7.460937 3.066406l41.367188 41.390625c-.082031.074219-.15625.152344-.234375.222656-.628906.566407-1.242187 1.144532-1.84375 1.746094l-10.847656 10.847656c-.609375.609376-1.195313 1.230469-1.765625 1.863282-.066406.078125-.140625.148437-.207032.222656zm-14.890624 352.308594s-.003907 0-.003907-.003906c-8.257812-8.246094-5.074219-22.667969-.949219-33.316407 7.59375-19.59375 24.933594-43.273437 50.136719-68.480469 12.3125-12.3125 32.546875-28.964843 60.175781-49.542968l42.964844 42.964844c-21.117187 26.878906-38.097656 46.785156-50.511718 59.203124-25.203126 25.199219-48.882813 42.535157-68.480469 50.125-10.652344 4.125-25.074219 7.308594-33.332031-.949218zm7.769531-143.214844c12.175781-12.175781 34.6875-26.542969 66.972656-42.746094l20.339844 20.339844c-27.226563 20.367188-47.40625 37.066406-60.027344 49.6875-27.542969 27.542969-45.925781 52.910156-54.640625 75.394531-1.128906 2.917969-2.0625 5.707031-2.816406 8.375-15.398438-35.5625-5.175782-75.703125 30.171875-111.050781zm135.453125 135.453125c-35.355469 35.355469-75.503906 45.578125-111.070313 30.164063 2.675781-.753907 5.46875-1.683594 8.394531-2.816407 22.492188-8.710937 47.855469-27.09375 75.394532-54.632812 12.667968-12.667969 29.679687-32.539063 50.613281-59.101563l21.648437 21.652344c-17.644531 30.753906-32.761718 52.519531-44.980468 64.734375zm189.542968 7.570313c-1.550781-1.554688-2.886718-3.253907-3.996093-5.089844l48.046875-48.046875c1.835937 1.109375 3.535156 2.445312 5.089844 3.996093 10.558593 10.5625 10.558593 27.75 0 38.3125l-10.828126 10.828126c-10.566406 10.558593-27.75 10.558593-38.3125 0zm106.613282 57.5c-1.960938 1.964843-4.59375 3.050781-7.414063 3.054687-.003906 0-.007812 0-.011719 0-2.828124 0-5.476562-1.089844-7.457031-3.070313l-41.382812-41.382812c.054687-.046875.105469-.101562.160156-.152344.65625-.585937 1.304687-1.191406 1.933594-1.820312l10.828125-10.828125s.003906 0 .003906-.003907c.628906-.628906 1.230469-1.273437 1.816406-1.929687.050782-.054687.101563-.105469.152344-.160156l41.382812 41.382812c1.980469 1.980469 3.070313 4.632813 3.070313 7.46875-.003906 2.820313-1.085937 5.453125-3.082031 7.441407zm0 0" fill="#ffccf0"/><path d="m380.222656 271.964844c-4.300781 3.457031-4.988281 9.746094-1.53125 14.046875l.113282.144531c1.972656 2.457031 4.871093 3.734375 7.796874 3.734375 2.195313 0 4.40625-.722656 6.25-2.203125 4.304688-3.457031 4.988282-9.746094 1.53125-14.050781l-.113281-.140625c-3.457031-4.300782-9.746093-4.988282-14.046875-1.53125zm0 0" fill="#ffccf0"/></g><g transform="matrix(0.078125 0 0 0.078125 242.5 67.5)" id="L1_164"><path d="m509.717 268.946c-.493-19.807-16.402-35.323-36.218-35.323h-16.607l.995-6.243c1.303-8.203-5.039-15.627-13.337-15.627h-143.299c-4.143 0-7.5 3.358-7.5 7.5s3.357 7.5 7.5 7.5h141.545l-35.614 223.551c-.223 1.405-1.423 2.425-2.853 2.425h-68.035c6.802-5.714 12.278-12.936 15.997-21.292 4.365-9.814 7.121-21.552 7.971-33.944.283-4.133-2.837-7.712-6.97-7.996-4.136-.29-7.712 2.836-7.995 6.97-.721 10.509-3.103 20.763-6.71 28.872-4.819 10.825-13.566 19.125-24.63 23.37-10.713 4.111-22.356 3.93-32.925-.466 9.578-10.545 15.423-24.54 15.423-39.874 0-16.343-5.224-34.987-14.088-50.711 15.892-13.222 32.686-18.541 43.844-13.575 8.592 3.822 13.215 13.107 15.581 20.223 1.309 3.936 5.556 6.055 9.483 4.751 3.931-1.307 6.058-5.553 4.751-9.483-4.76-14.315-12.962-24.411-23.718-29.196-2.288-1.018-4.628-1.758-7-2.273v-27.994c0-7.339-5.971-13.31-13.309-13.31h-29.949l-3.102-19.488c-.965-6.123-4.888-11.373-10.5-14.046l-38.778-18.42v-8.095h36.58c4.143 0 7.5-3.358 7.5-7.5s-3.357-7.5-7.5-7.5h-39.08c-6.893 0-12.5 5.607-12.5 12.5v12.17c0 4.794 2.796 9.225 7.133 11.294l40.202 19.096c1.137.542 1.932 1.602 2.128 2.848l2.729 17.141h-98.188l-9.915-27.248c-2.513-6.895-10.167-10.463-17.062-7.95l-6.923 2.52-8.647-23.757 4.527-1.648c6.283-2.287 10.555-8.316 10.63-15.002l1.22-109.634c.157-14.223-3.821-28.082-11.506-40.08l-4.786-7.473c-6.71-10.478-19.424-14.875-30.91-10.692l-78.268 28.488c-11.49 4.182-18.401 15.721-16.806 28.06l1.138 8.8c1.826 14.132 7.687 27.306 16.95 38.098l71.406 83.201c3.117 3.632 7.665 5.623 12.304 5.623 1.841 0 3.696-.314 5.482-.963l4.525-1.647 8.647 23.758-6.902 2.512c-3.349 1.208-6.022 3.65-7.531 6.876-1.51 3.228-1.669 6.849-.45 10.192l2.898 7.966h-78.35c-7.345 0-13.32 5.971-13.32 13.31v25.889c0 4.142 3.357 7.5 7.5 7.5s7.5-3.358 7.5-7.5v-24.198c9.21 0 262.976-.001 278.286-.001v25.934c-12.825 1.896-25.687 8.903-36.298 17.406-10.809-13.6-23.661-20.972-36.917-20.972-15.861 0-31.147 10.547-43.043 29.699-10.219 16.451-16.319 36.826-16.319 54.501 0 17.628 7.732 33.478 19.974 44.359h-95.363c-4.304 0-8.462-1.555-11.707-4.378l-49.012-42.64c-6.102-5.306-9.601-12.989-9.601-21.08v-23.63c0-4.142-3.357-7.5-7.5-7.5s-7.5 3.358-7.5 7.5v23.63c0 12.434 5.38 24.243 14.758 32.398l49.009 42.64c5.976 5.198 13.63 8.061 21.553 8.061h137.658c2.798 0 5.571-.362 8.249-1.064 7.293-1.393 14.114-4.121 20.202-7.925 1.774 1.02 3.596 1.955 5.458 2.78 7.726 3.44 15.92 5.165 24.131 5.165 2.024 0 4.048-.117 6.067-.327 2.162.896 4.481 1.37 6.842 1.37h93.379c8.85 0 16.281-6.34 17.666-15.07l28.431-178.48h18.823l2.17 86.272c.174 6.787 5.744 12.191 12.49 12.191.106 0 15.87-.404 15.87-.404 3.345-.072 6.458-1.445 8.766-3.864 2.31-2.421 3.535-5.598 3.45-8.942zm-444.521-140.66c-5.415-10.149-9.932-21.616-13.06-33.16l-2.274-8.388c-1.047-3.864-1.192-6.527-1.106-7.996l25.086-9.131c1.01 1.07 2.612 3.203 4.293 6.836l3.649 7.887c5.024 10.858 8.935 22.545 11.31 33.798l21.225 100.57-.323.118c-.016.006-.032.009-.048.015s-.03.013-.046.019l-.322.117zm35.237-68.352c4.843-1.764 10.25.162 13.148 4.686l4.786 7.473c6.102 9.529 9.262 20.533 9.137 31.823l-1.106 99.386-18.628-88.268c-2.603-12.339-6.883-25.133-12.373-36.999l-3.649-7.887c-1.006-2.174-2.079-4.133-3.201-5.889zm-70.735 79.582c-7.352-8.568-12.006-19.029-13.456-30.252l-1.138-8.801c-.688-5.327 2.215-10.278 7.06-12.042l11.886-4.326c.27 2.066.706 4.256 1.333 6.568l2.274 8.388c3.42 12.617 8.366 25.168 14.304 36.297l42.465 79.589zm90.771 135.778 12.279-4.469c.037-.013.074-.022.111-.035.032-.012.062-.027.094-.04l12.291-4.474 7.469 20.525h-28.058zm72.264 133.076c0-14.772 5.388-32.623 14.061-46.587 8.926-14.371 19.97-22.613 30.3-22.613 10.65 0 21.008 8.471 29.035 20.574.198.366.424.72.687 1.056 8.81 13.745 14.64 31.844 14.64 47.57 0 24.429-19.848 44.307-44.266 44.359h-.192c-24.416-.052-44.265-19.93-44.265-44.359zm293.62-50.791-2.106-83.792c-.202-8.173-6.768-14.575-14.947-14.575h-16.484l1.687-10.59h18.996c11.612 0 20.934 9.091 21.222 20.699l2.217 87.986z" fill="#ffccf0"/><path d="m384.887 274.355h8.002c4.143 0 7.5-3.358 7.5-7.5s-3.357-7.5-7.5-7.5h-8.002c-4.143 0-7.5 3.358-7.5 7.5s3.357 7.5 7.5 7.5z" fill="#ffccf0"/><path d="m384.887 311.159h8.002c4.143 0 7.5-3.358 7.5-7.5s-3.357-7.5-7.5-7.5h-8.002c-4.143 0-7.5 3.358-7.5 7.5s3.357 7.5 7.5 7.5z" fill="#ffccf0"/><path d="m384.887 347.962h8.002c4.143 0 7.5-3.358 7.5-7.5s-3.357-7.5-7.5-7.5h-8.002c-4.143 0-7.5 3.358-7.5 7.5s3.357 7.5 7.5 7.5z" fill="#ffccf0"/><path d="m384.887 384.766h8.002c4.143 0 7.5-3.358 7.5-7.5s-3.357-7.5-7.5-7.5h-8.002c-4.143 0-7.5 3.358-7.5 7.5s3.357 7.5 7.5 7.5z" fill="#ffccf0"/></g><g transform="matrix(1.5 0 0 1.5 217.5 217.5)" id="L1_166"><circle cx="5" cy="55" r="1" id="Oval" fill="#ffccf0"/><path d="m53.75 3.68c-3.6-3.59-7.75-3.58-11.31.01-15.44 15.41 10.56-10.43-13.44 13.43-.5648636.5629056-.8823657 1.3275456-.8823657 2.125s.3175021 1.5620944.8823657 2.125l3.19 3.19c-22.19 22.2-26.1 23.28-29.95 27.13-3.69 3.69-2 6.46-.71 7.78.86372007.9479209 2.07792557 1.5008181 3.36 1.53 3.15 0 5.54-3.43 7.54-5.93 8.24-10.3 14.67-16.92 24-26.27 1 1 1.69 1.92 3.18 1.92.7939488.0019547 1.5562971-.3108958 2.12-.87l12.2-12.19c.11.28.07-.87.07 15.23-.0278765 1.686246 1.3138433 3.0771622 3 3.11 1.6568542 0 3-1.3431458 3-3v-19.55c-.0006016-2.4799911-1.024516-4.84982833-2.83-6.55zm-45.86 53.67c-1.9 1.9-3.47 2.18-4.95.71-.91-.91-1.82-2.42.71-5 3.78-3.78 7.83-5 30-27.14l1.35 1.46c-22.49 22.52-23.4 26.26-27.11 29.97zm32.43-28.92c-.3900375.3877236-1.0199625.3877236-1.41 0l-8.49-8.43c-.3877236-.3900375-.3877236-1.0199625 0-1.41l6.58-6.59h3c.5522847 0 1 .4477153 1 1v4.89c-.0196496 1.0717968.5339901 2.0726608 1.4523686 2.6255763.9183784.5529155 2.061972.5738814 3 .055.9380281-.5188813 1.5279818-1.4987795 1.5476314-2.5705763 0-.5522847.4477153-1 1-1h3.76zm17.68 4.57c.004336.2974817-.1240116.5814469-.3501732.7747474s-.5266495.2758615-.8198268.2252526c-.5027473-.1230923-.8495982-.5827743-.83-1.1v-14.9c.0146193-1.1403499-.6382328-2.1841315-1.67-2.67-1-.49-.85-.33-6.33-.33-1.6568542 0-3 1.3431458-3 3 .0071799.3095697-.1294575.6050019-.37.8-.3179493.2648918-.7662137.3065736-1.1275516.1048451-.3613378-.2017285-.561089-.6051859-.5024484-1.0148451v-4.89c0-1.6568542-1.3431458-3-3-3h-1l4.9-4.9c2.81-2.81 5.72-2.86 8.48 0 .27.28-1-.95 3.46 3.26 1.3879903 1.32836014 2.1690057 3.1688086 2.16 5.09z" id="L1_165" fill="#ffccf0"/><path d="m45.27 6.51-1.64 1.64c-.2884599.28609046-.3751619.71826679-.219371 1.09348151.155791.37521471.5231059.61888111.929371.61651849.53 0 .58-.17 2.35-1.93.73-.74 1.23-.93 1.4-.93.5623471.15248492 1.0625696.47780448 1.43.93.3967603.3397768.9881942.31693227 1.3575632-.05243678.3693691-.36936905.3922136-.96080294.0524368-1.35756322-2.06-2.07-3.7-1.96-5.66-.01z" id="L1_167" fill="#ffccf0"/></g><path d="m3.729 10.8c2.407 1.527 5.989 3.092 7.567 5.373-1.931 2.585-2.455 4.388-1.513 5.346l10.8 10.8c-3.05 3.059.5-.5-17.879 17.877-1.5316561 1.4290991-2.16154994 3.5800214-1.64275868 5.6095904.51879126 2.0295689 2.10359934 3.614377 4.1331683 4.1331683 2.02956895.5187912 4.18049133-.1111026 5.60959038-1.6427587.33-.329-2.8 2.8 17.878-17.878l10.8 10.8c1.295 1.278 3.9-.418 5.35-1.512 2.276 1.581 3.841 5.158 5.367 7.565 1.2008073 1.8950821 3.3797765 2.9363234 5.6085956 2.6801212s4.1146969-1.7646967 4.8541877-3.8828155c.7394908-2.1181189.2022722-4.4725799-1.3827833-6.0603057-1.719-1.722-6.594-3.322-8.575-6.175 1.447-1.922 2.661-4.186 1.508-5.353l-7.3-7.3c2.0372935-.7841215 4.0177172-1.7086757 5.927-2.767 2.0926876-1.1682697 4.0324793-2.5914554 5.775-4.237 8.83-8.809 2.719-23.96-9.769-23.96-3.7634139-.00671673-7.3727723 1.49400131-10.022 4.167-3.0895587 3.39346836-5.4764757 7.3652058-7.023 11.686l-7.289-7.292c-.951-.934-2.752-.413-5.34 1.52-2.281-1.579-3.849-5.165-5.371-7.57-1.2854302-2.02626102-3.67806396-3.06184471-6.03514513-2.61214152-2.35708117.4497032-4.20037247 2.29345127-4.64949163 4.65064379-.44911917 2.35719251.58705731 4.74956958 2.61363676 6.03449773zm21.712 21.125c1.4920944.0367729 2.8181788.9606304 3.3696419 2.3475645s.2218187 2.969131-.8376419 4.0204355c-.1.1.2-.191-.884.894-.6266902-2.6129021-2.6730413-4.6491936-5.289-5.263 1.154-1.157.793-.783.905-.9.7222296-.7267421 1.7117274-1.1242048 2.736-1.099zm30.427-25.379c.519992 1.41782777.5064856 2.97639689-.038 4.385-2.885 9.477-16.954 16.512-25.76 21.461-.07-.1-.82.782 25.798-25.846zm-1.417-1.411-25.806 25.816c-.06-.042-.117-.087-.179-.127 4.289-7.274 8.6-15.382 14.011-20.786 4.163-4.156 9.296-6.17 11.974-4.903zm-41.828 48.518c-1.4 1.4-5.056-.457-5.686-3.372-.19659246-.6611659-.04364603-1.3769251.406-1.9 13.544-13.535 11.868-11.86 12.124-12.115.3347308-.3256807.7894945-.4980275 1.256-.476 2.764-.006 5.6 3.772 4.02 5.75zm-8.536 3.26c-1.45469957-1.474403-1.44127852-3.8481404.03-5.306l.875-.874c.64292285 2.6004085 2.67018367 4.6326711 5.269 5.282l-.868.868c-1.45809013 1.4707298-3.83137268 1.4841483-5.306.03zm53.783-5.488c1.046169 1.0450625 1.401341 2.5969659.9138522 3.9930247-.4874887 1.3960588-1.731485 2.3895497-3.2007844 2.5562378-1.4692993.166688-2.9042347-.5228855-3.6920678-1.7742625-1.457-2.3-2.991-5.8-5.461-7.793 1.0560373-.9268724 2.0504823-1.9216515 2.977-2.978 2.467 3.062 7.127 4.66 8.463 5.996zm-7.189-11.65c-.063.675-1.277 2.936-4.13 5.779s-5.1 4.063-5.776 4.126l-10.755-10.755c.5786213-.827618.9277869-1.7936888 1.012-2.8 3.61-1.255 7.824-2.629 11.848-4.151zm4.519-17.009c-5.047 5.083-14.658 7.984-23.537 11.024 9.452-5.312 24.469-12.959 26.411-23.676 1.5843529 4.4173553.4632672 9.3526289-2.874 12.652zm-20.886-11.6c1.0839541-1.94220378 2.4017706-3.74429422 3.924-5.366 3.3001799-3.33376084 8.2332195-4.45304485 12.649-2.87-10.516 1.884-17.918 16.319-23.373 25.57l3.6-10.243c.8486513-2.4575683 1.9201065-4.8324432 3.201-7.095zm-5.276 6.971-4.151 11.807c-1.0155566.0839271-1.9900455.4385693-2.822 1.027l-10.741-10.742c.3940339-1.2610439 1.06624-2.4174982 1.967-3.384 1.351624-1.6737884 2.8768057-3.1996406 4.55-4.552.9681763-.9010331 2.1258333-1.5738273 3.388-1.969zm-24.908-15.007c.82840219-.82652561 1.98753592-1.23178091 3.15046854-1.10146399 1.16293261.13031692 2.20361789.78208146 2.82853146 1.77146399 1.458 2.3 3 5.811 5.466 7.8-1.0602542.9206214-2.0543786 1.9147458-2.975 2.975-1.99-2.469-5.5-4.009-7.8-5.464-.98945634-.62533766-1.64120477-1.66635549-1.77151081-2.82958005-.13030605-1.16322455.27494575-2.32264903 1.10151081-3.15141995z" transform="matrix(1.1084394454956055 -0.29700544476509094 0.29700544476509094 1.1084394454956055 132.13392639160156 150.2512664794922)" id="L1_170" fill="#ffccf0"/><path d="M451.412,467.42c-8.025-4.012-17.467-3.161-24.644,2.222L400.29,489.5V103.693C400.29,46.517,353.773,0,296.597,0h-32.064    C207.356,0,160.84,46.517,160.84,103.693v48.099c0,4.142,3.358,7.5,7.5,7.5c4.142,0,7.5-3.358,7.5-7.5v-48.099    C175.84,54.787,215.628,15,264.533,15h32.064c48.906,0,88.693,39.788,88.693,88.693v361.242h-16.546c-4.142,0-7.5,3.358-7.5,7.5    c0,4.142,3.358,7.5,7.5,7.5h16.546V497H158.367c-4.271,0-7.908-3.193-8.46-7.429l-1.257-9.636h188.025c4.142,0,7.5-3.358,7.5-7.5    c0-4.142-3.358-7.5-7.5-7.5H146.693l-15.17-116.303c-2.66-20.389-8.67-40.052-17.866-58.442L65.21,193.296    c-4.778-9.556-2.912-21.052,4.643-28.607c4.795-4.795,11.173-7.361,17.951-7.255c6.78,0.117,13.063,2.912,17.69,7.869    l43.485,46.592c4.378,4.691,11.064,6.202,17.033,3.849c5.969-2.353,9.826-8.019,9.826-14.436v-17.452c0-4.142-3.358-7.5-7.5-7.5    c-4.142,0-7.5,3.358-7.5,7.5v17.452c0,0.188,0,0.352-0.327,0.48c-0.331,0.13-0.438,0.009-0.567-0.128l-43.485-46.592    c-7.428-7.958-17.513-12.445-28.398-12.632c-10.849-0.205-21.118,3.948-28.816,11.646c-12.127,12.128-15.122,30.582-7.452,45.921    l48.447,96.894c8.445,16.891,13.966,34.949,16.408,53.675l18.383,140.939c1.523,11.68,11.555,20.488,23.334,20.488h282.52    c12.976,0,23.532-10.557,23.532-23.532C464.419,479.497,459.435,471.432,451.412,467.42z M440.887,497H415.29l20.478-15.358    c2.642-1.981,5.983-2.282,8.936-0.806c2.953,1.477,4.716,4.33,4.716,7.631C449.419,493.172,445.592,497,440.887,497z" transform="matrix(0.09765644371509552 0 0 0.09765644371509552 62.5 237.5)" id="L1_169" fill="#ffccf0"/><g transform="matrix(0.12096773833036423 0 0 0.12096773833036423 150 -26)" id="L1_172"><path d="m216 32h-176c-4.425781 0-8 3.585938-8 8v48c0 4.414062 3.574219 8 8 8h176c4.425781 0 8-3.585938 8-8v-48c0-4.414062-3.574219-8-8-8zm-8 48h-160v-32h160zm0 0" fill="#ffccf0"/><path d="m272 32c-17.648438 0-32 14.351562-32 32s14.351562 32 32 32 32-14.351562 32-32-14.351562-32-32-32zm0 48c-8.824219 0-16-7.175781-16-16s7.175781-16 16-16 16 7.175781 16 16-7.175781 16-16 16zm0 0" fill="#ffccf0"/><path d="m352 32c-17.648438 0-32 14.351562-32 32s14.351562 32 32 32 32-14.351562 32-32-14.351562-32-32-32zm0 48c-8.824219 0-16-7.175781-16-16s7.175781-16 16-16 16 7.175781 16 16-7.175781 16-16 16zm0 0" fill="#ffccf0"/><path d="m496 376c0-22.984375-19.425781-41.832031-42.808594-39.878906-5.734375-16.511719-19.992187-28.535156-37.191406-31.425782v-296.695312c0-4.414062-3.574219-8-8-8h-400c-4.425781 0-8 3.585938-8 8v400c0 4.414062 3.574219 8 8 8h304v-16h-296v-272h384v176.695312c-17.199219 2.890626-31.457031 14.914063-37.191406 31.425782-10.089844-.839844-19.441406 2.214844-26.824219 7.789062-.054687-4.375-3.59375-7.910156-7.984375-7.910156h-8v-8c0-13.230469-10.769531-24-24-24h-16c-13.230469 0-24 10.769531-24 24v8h-16v-8c0-13.230469-10.769531-24-24-24h-16c-13.230469 0-24 10.769531-24 24v8h-16v-8c0-13.230469-10.769531-24-24-24h-16c-13.230469 0-24 10.769531-24 24v8h-8c-4.425781 0-8 3.585938-8 8v24h-32v-96h320v24h16v-144c0-4.414062-3.574219-8-8-8h-336c-4.425781 0-8 3.585938-8 8v224c0 4.414062 3.574219 8 8 8h280.808594c2.679687 13.167969 11.863281 23.96875 24.03125 28.976562l15.320312 76.597657c.742188 3.738281 4.023438 6.425781 7.839844 6.425781h80c3.816406 0 7.097656-2.6875 7.839844-6.433594l15.320312-76.597656c14.550782-5.984375 24.839844-20.28125 24.839844-36.96875zm-352-152h-32v-8c0-4.40625 3.585938-8 8-8h16c4.414062 0 8 3.59375 8 8zm176 16v16h-224v-16zm-96-16h-32v-8c0-4.40625 3.585938-8 8-8h16c4.414062 0 8 3.59375 8 8zm80 0h-32v-8c0-4.40625 3.585938-8 8-8h16c4.414062 0 8 3.59375 8 8zm64-64v96h-32v-24c0-4.414062-3.574219-8-8-8h-8v-8c0-13.230469-10.769531-24-24-24h-16c-13.230469 0-24 10.769531-24 24v8h-16v-8c0-13.230469-10.769531-24-24-24h-16c-13.230469 0-24 10.769531-24 24v8h-16v-8c0-13.230469-10.769531-24-24-24h-16c-13.230469 0-24 10.769531-24 24v8h-8c-4.425781 0-8 3.585938-8 8v24h-32v-96zm-352-48v-96h384v96zm256 216c0-4.40625 3.585938-8 8-8h16c4.414062 0 8 3.59375 8 8v8h-32zm-80 0c0-4.40625 3.585938-8 8-8h16c4.414062 0 8 3.59375 8 8v8h-32zm-80 0c0-4.40625 3.585938-8 8-8h16c4.414062 0 8 3.59375 8 8v8h-32zm-16 24h224v16h-224zm345.449219 128h-66.890625l-12.796875-64h92.476562zm14.550781-80h-96c-13.230469 0-24-10.769531-24-24s10.769531-24 24-24c1.929688 0 3.992188.328125 6.496094 1.039062 2.199218.609376 4.535156.273438 6.457031-.933593 1.917969-1.21875 3.230469-3.195313 3.613281-5.433594 2.601563-15.457031 15.824219-26.671875 31.433594-26.671875s28.832031 11.214844 31.441406 26.671875c.382813 2.238281 1.695313 4.214844 3.613282 5.433594 1.90625 1.207031 4.242187 1.542969 6.457031.933593 2.496093-.710937 4.558593-1.039062 6.488281-1.039062 13.230469 0 24 10.769531 24 24s-10.769531 24-24 24zm0 0" fill="#ffccf0"/><path d="m248 480h96v16h-96zm0 0" fill="#ffccf0"/><path d="m248 448h80v16h-80zm0 0" fill="#ffccf0"/><path d="m216 448h16v16h-16zm0 0" fill="#ffccf0"/></g></defs><g fi:class="KUsePattern"><pattern id="pattern_L1_158" width="350" height="350" patternUnits="userSpaceOnUse"><use xlink:href="#L1_158" x="-350" y="-350"/><use xlink:href="#L1_158" x="0" y="-350"/><use xlink:href="#L1_158" x="350" y="-350"/><use xlink:href="#L1_158" x="-350" y="0"/><use xlink:href="#L1_158" x="0" y="0"/><use xlink:href="#L1_158" x="350" y="0"/><use xlink:href="#L1_158" x="-350" y="350"/><use xlink:href="#L1_158" x="0" y="350"/><use xlink:href="#L1_158" x="350" y="350"/></pattern><rect x="0" y="0" width="100%" height="100%" fill="url(#pattern_L1_158)"/></g><g fi:class="KUsePattern"><pattern id="pattern_L1_159" width="350" height="350" patternUnits="userSpaceOnUse"><use xlink:href="#L1_159" x="-350" y="-350"/><use xlink:href="#L1_159" x="0" y="-350"/><use xlink:href="#L1_159" x="350" y="-350"/><use xlink:href="#L1_159" x="-350" y="0"/><use xlink:href="#L1_159" x="0" y="0"/><use xlink:href="#L1_159" x="350" y="0"/><use xlink:href="#L1_159" x="-350" y="350"/><use xlink:href="#L1_159" x="0" y="350"/><use xlink:href="#L1_159" x="350" y="350"/></pattern><rect x="0" y="0" width="100%" height="100%" fill="url(#pattern_L1_159)"/></g><g fi:class="KUsePattern"><pattern id="pattern_L1_161" width="350" height="350" patternUnits="userSpaceOnUse"><use xlink:href="#L1_161" x="-350" y="-350"/><use xlink:href="#L1_161" x="0" y="-350"/><use xlink:href="#L1_161" x="350" y="-350"/><use xlink:href="#L1_161" x="-350" y="0"/><use xlink:href="#L1_161" x="0" y="0"/><use xlink:href="#L1_161" x="350" y="0"/><use xlink:href="#L1_161" x="-350" y="350"/><use xlink:href="#L1_161" x="0" y="350"/><use xlink:href="#L1_161" x="350" y="350"/></pattern><rect x="0" y="0" width="100%" height="100%" fill="url(#pattern_L1_161)"/></g><g fi:class="KUsePattern"><pattern id="pattern_L1_162" width="350" height="350" patternUnits="userSpaceOnUse"><use xlink:href="#L1_162" x="-350" y="-350"/><use xlink:href="#L1_162" x="0" y="-350"/><use xlink:href="#L1_162" x="350" y="-350"/><use xlink:href="#L1_162" x="-350" y="0"/><use xlink:href="#L1_162" x="0" y="0"/><use xlink:href="#L1_162" x="350" y="0"/><use xlink:href="#L1_162" x="-350" y="350"/><use xlink:href="#L1_162" x="0" y="350"/><use xlink:href="#L1_162" x="350" y="350"/></pattern><rect x="0" y="0" width="100%" height="100%" fill="url(#pattern_L1_162)"/></g><g fi:class="KUsePattern"><pattern id="pattern_L1_163" width="350" height="350" patternUnits="userSpaceOnUse"><use xlink:href="#L1_163" x="-350" y="-350"/><use xlink:href="#L1_163" x="0" y="-350"/><use xlink:href="#L1_163" x="350" y="-350"/><use xlink:href="#L1_163" x="-350" y="0"/><use xlink:href="#L1_163" x="0" y="0"/><use xlink:href="#L1_163" x="350" y="0"/><use xlink:href="#L1_163" x="-350" y="350"/><use xlink:href="#L1_163" x="0" y="350"/><use xlink:href="#L1_163" x="350" y="350"/></pattern><rect x="0" y="0" width="100%" height="100%" fill="url(#pattern_L1_163)"/></g><g fi:class="KUsePattern"><pattern id="pattern_L1_164" width="350" height="350" patternUnits="userSpaceOnUse"><use xlink:href="#L1_164" x="-350" y="-350"/><use xlink:href="#L1_164" x="0" y="-350"/><use xlink:href="#L1_164" x="350" y="-350"/><use xlink:href="#L1_164" x="-350" y="0"/><use xlink:href="#L1_164" x="0" y="0"/><use xlink:href="#L1_164" x="350" y="0"/><use xlink:href="#L1_164" x="-350" y="350"/><use xlink:href="#L1_164" x="0" y="350"/><use xlink:href="#L1_164" x="350" y="350"/></pattern><rect x="0" y="0" width="100%" height="100%" fill="url(#pattern_L1_164)"/></g><g fi:class="KUsePattern"><pattern id="pattern_L1_166" width="350" height="350" patternUnits="userSpaceOnUse"><use xlink:href="#L1_166" x="-350" y="-350"/><use xlink:href="#L1_166" x="0" y="-350"/><use xlink:href="#L1_166" x="350" y="-350"/><use xlink:href="#L1_166" x="-350" y="0"/><use xlink:href="#L1_166" x="0" y="0"/><use xlink:href="#L1_166" x="350" y="0"/><use xlink:href="#L1_166" x="-350" y="350"/><use xlink:href="#L1_166" x="0" y="350"/><use xlink:href="#L1_166" x="350" y="350"/></pattern><rect x="0" y="0" width="100%" height="100%" fill="url(#pattern_L1_166)"/></g><g fi:class="KUsePattern"><pattern id="pattern_L1_170" width="350" height="350" patternUnits="userSpaceOnUse"><use xlink:href="#L1_170" x="-350" y="-350"/><use xlink:href="#L1_170" x="0" y="-350"/><use xlink:href="#L1_170" x="350" y="-350"/><use xlink:href="#L1_170" x="-350" y="0"/><use xlink:href="#L1_170" x="0" y="0"/><use xlink:href="#L1_170" x="350" y="0"/><use xlink:href="#L1_170" x="-350" y="350"/><use xlink:href="#L1_170" x="0" y="350"/><use xlink:href="#L1_170" x="350" y="350"/></pattern><rect x="0" y="0" width="100%" height="100%" fill="url(#pattern_L1_170)"/></g><g fi:class="KUsePattern"><pattern id="pattern_L1_169" width="350" height="350" patternUnits="userSpaceOnUse"><use xlink:href="#L1_169" x="-350" y="-350"/><use xlink:href="#L1_169" x="0" y="-350"/><use xlink:href="#L1_169" x="350" y="-350"/><use xlink:href="#L1_169" x="-350" y="0"/><use xlink:href="#L1_169" x="0" y="0"/><use xlink:href="#L1_169" x="350" y="0"/><use xlink:href="#L1_169" x="-350" y="350"/><use xlink:href="#L1_169" x="0" y="350"/><use xlink:href="#L1_169" x="350" y="350"/></pattern><rect x="0" y="0" width="100%" height="100%" fill="url(#pattern_L1_169)"/></g><g fi:class="KUsePattern"><pattern id="pattern_L1_172" width="350" height="350" patternUnits="userSpaceOnUse"><use xlink:href="#L1_172" x="-350" y="-350"/><use xlink:href="#L1_172" x="0" y="-350"/><use xlink:href="#L1_172" x="350" y="-350"/><use xlink:href="#L1_172" x="-350" y="0"/><use xlink:href="#L1_172" x="0" y="0"/><use xlink:href="#L1_172" x="350" y="0"/><use xlink:href="#L1_172" x="-350" y="350"/><use xlink:href="#L1_172" x="0" y="350"/><use xlink:href="#L1_172" x="350" y="350"/></pattern><rect x="0" y="0" width="100%" height="100%" fill="url(#pattern_L1_172)"/></g></svg>