<svg id="Layer_1" enable-background="new 0 0 512.001 512.001" height="512" viewBox="0 0 512.001 512.001" width="512" xmlns="http://www.w3.org/2000/svg"><path d="m455.853 286.282c.331-1.26.642-2.525.909-3.797 6.882-32.762-6.631-68.93-38.05-101.841-14.873-15.579-33.005-29.626-53.404-41.564-1.666-36.946-13.82-68.218-36.21-93.052-24.511-27.187-55.274-39.757-76.765-45.516-3.844-1.031-7.937-.491-11.382 1.499-3.445 1.989-5.959 5.265-6.989 9.108-13.306 49.66-30.342 70.989-75.951 95.092-.438.232-.859.484-1.264.752-9.436 3.133-18.217 7.061-26.18 11.796-22.838 13.58-37.473 32.961-42.324 56.05-1.336 6.364-1.899 12.992-1.672 19.701l.296 10.789c-18.223 14.327-30.04 32.751-34.464 53.983-2.366 11.356-2.53 23.193-.5 35.325-.512 2.199-.545 4.531 0 6.839l41.506 175.89c4.817 20.41 22.827 34.665 43.797 34.665h238.556c20.966 0 38.976-14.251 43.795-34.656l41.543-175.896c1.353-5.723-.777-11.603-5.247-15.167zm-197.345-252.269c26.798 10.237 65.775 34.32 74.996 88.977-11.213-4.86-22.872-9.12-34.853-12.706-26.274-7.864-52.336-11.963-76.785-12.383 16.807-16.787 27.898-36.668 36.642-63.888zm-112.608 110.531c33.58-19.966 88.814-22.082 144.149-5.521 81.921 24.518 143.416 84.071 138.138 132.321l-7.741-6.952c-33.209-33.98-80.249-61.367-132.48-77.127-63.445-19.144-125.814-18.64-171.303.705.161-2.382.463-4.724.94-6.995 3.124-14.865 12.644-27.122 28.297-36.431zm-30.827 77.732c38.446-22.844 101.374-25.255 164.228-6.29 32.764 9.886 63.161 24.688 88.626 42.913l-44.784 13.441-62.37-18.707c-2.812-.843-5.809-.843-8.622.001l-62.329 18.706-62.369-18.707c-3.777-1.132-7.847-.733-11.331 1.112l-35.464 18.784c.192-2.76.562-5.472 1.115-8.128 3.684-17.674 14.887-32.184 33.3-43.125zm107.411 259.725-16.615-183.155 50.596-15.185 50.628 15.186-16.686 183.154zm-85.276 0c-7.101 0-12.968-4.644-14.599-11.555l-38.842-164.598c.001-.006.002-.012.003-.018l40.957-21.694 51.073 15.319 16.56 182.546zm253.154-11.552c-1.632 6.91-7.499 11.552-14.599 11.552h-55.231l16.63-182.546 51.044-15.319 41.034 21.704z"/></svg>